<svg width="2560" height="2560" viewBox="0 0 2560 2560" xmlns="http://www.w3.org/2000/svg" xmlns:xlink="http://www.w3.org/1999/xlink"><title>Untitled</title><defs><path id="a" d="M0 2560h2560V0H0z"/><path d="M121.315 381.173c-23.942-10.441-44.808-24.657-62.626-42.648-17.816-18-31.944-38.964-42.38-62.894C5.868 251.693.656 226.048.656 198.7c0-27.356 5.212-53.001 15.653-76.929 10.436-23.94 24.564-44.901 42.38-62.893 17.818-18 38.684-32.215 62.626-42.651C145.243 5.787 170.887.573 198.243.573c27.346 0 52.99 5.214 76.928 15.655 23.932 10.436 44.81 24.65 62.625 42.65 17.816 17.993 31.936 38.954 42.379 62.894 10.433 23.928 15.654 49.573 15.654 76.93 0 27.346-5.221 52.991-15.654 76.929-10.443 23.93-24.563 44.894-42.379 62.894-17.815 17.991-38.693 32.207-62.625 42.648-23.938 10.434-49.582 15.655-76.928 15.655-27.356 0-53-5.221-76.928-15.655m31.58-289.904c-14.036 6.115-26.275 14.483-36.712 25.103-10.443 10.612-18.716 22.945-24.831 36.981-6.125 14.036-9.179 29.154-9.179 45.348 0 16.195 3.054 31.311 9.179 45.348 6.115 14.036 14.388 26.36 24.83 36.98 10.438 10.612 22.677 18.98 36.713 25.104 14.034 6.114 29.152 9.176 45.348 9.176 15.833 0 30.772-3.062 44.806-9.176 14.036-6.124 26.363-14.492 36.98-25.104 10.612-10.62 18.98-22.944 25.103-36.98 6.12-14.037 9.181-29.153 9.181-45.348 0-16.194-3.061-31.312-9.181-45.348-6.123-14.036-14.49-26.369-25.103-36.981-10.617-10.62-22.944-18.988-36.98-25.103-14.034-6.124-28.973-9.177-44.806-9.177-16.196 0-31.314 3.053-45.348 9.177" id="c"/><linearGradient x1="0%" y1="50%" y2="50%" id="d"><stop stop-color="#24894B" offset="0%"/><stop stop-color="#24894B" offset="5.67%"/><stop stop-color="#24894B" offset="100%"/></linearGradient><path id="f" d="M0 2560h2560V0H0z"/><path id="h" d="M1.187 396.828h347.666V.033H1.187z"/><path id="j" d="M.645 198.907h326.902V1.069H.645z"/><path id="l" d="M1.272 542.893h259.703V1.07H1.272z"/><path id="n" d="M.972 542.88h259.276V1.07H.972z"/><path id="p" d="M.417 198.907h327.558V1.069H.417z"/><path id="r" d="M.417 542.893h327.556V1.072H.417z"/><path id="t" d="M.537 542.893h259.271V1.07H.538z"/><path id="v" d="M.88 271.973h519.533V1.07H.88z"/><path id="x" d="M.88 272.227h237.067V.64H.88z"/><path id="z" d="M.88 271.973h237.067V1.072H.88z"/></defs><g fill="none" fill-rule="evenodd"><path d="M977.546 753.779L718.268 951.628l-259.272-197.85v541.82h518.55v-541.82zm-53.334 107.785v380.7H512.33V861.565l173.584 132.463 32.354 24.688 32.354-24.688 173.59-132.464z" fill="#FFF"/><path d="M1305.1 753.779l-327.554 541.818h653.793L1305.1 753.78zm-.09 103.241l231.96 385.244h-464.86l232.9-385.244z" fill="#FFF"/><g transform="matrix(1 0 0 -1 0 2560)"><mask id="b" fill="#fff"><use xlink:href="#a"/></mask><g mask="url(#b)"><path d="M1891.934 1806.221H1631.34v-541.818h260.594c182.334 0 258.944 164.341 258.944 270.905 0 106.572-76.61 270.913-258.944 270.913m0-53.333c34.353 0 65.566-7.175 92.772-21.327 24.008-12.486 45.148-30.45 62.837-53.396 36.865-47.82 50.001-105.15 50.001-142.857 0-37.705-13.136-95.032-50.001-142.85-17.69-22.945-38.83-40.91-62.837-53.397-27.206-14.15-58.42-21.325-92.772-21.325h-207.26v435.152h207.26" fill="#FFF"/><path d="M1053.941 862.509a196.998 196.998 0 0 0-30.772-38.33c-11.876-11.523-25.018-21.42-39.41-29.693-14.399-8.282-29.878-14.67-46.427-19.164-16.56-4.505-33.657-6.748-51.287-6.748-27.356 0-52.997 5.212-76.929 15.654-23.94 10.436-44.808 24.65-62.624 42.65-17.813 17.992-31.943 38.954-42.38 62.894-10.441 23.929-15.653 49.573-15.653 76.929 0 27.347 5.212 52.992 15.653 76.93 10.437 23.93 24.567 44.894 42.38 62.895 17.816 17.991 38.684 32.206 62.624 42.647 23.932 10.433 49.573 15.655 76.93 15.655 17.629 0 34.726-2.252 51.286-6.748 16.55-4.503 32.028-10.89 46.427-19.164a193.58 193.58 0 0 0 39.41-29.963c11.878-11.697 22.135-24.563 30.772-38.599l-60.465-60.465c-4.317 10.796-9.987 20.692-17.004 29.695a111.689 111.689 0 0 1-24.563 23.212c-9.364 6.477-19.622 11.516-30.772 15.117-11.16 3.59-22.862 5.397-35.092 5.397-15.842 0-30.865-3.062-45.076-9.177-14.224-6.124-26.548-14.492-36.98-25.104-10.445-10.62-18.72-22.944-24.836-36.98-6.124-14.036-9.177-29.153-9.177-45.348s3.053-31.312 9.177-45.348c6.116-14.036 14.391-26.37 24.835-36.981 10.433-10.619 22.757-18.988 36.981-25.103 14.211-6.123 29.234-9.177 45.076-9.177 12.23 0 23.931 1.797 35.092 5.4 11.15 3.594 21.408 8.637 30.772 15.113 9.352 6.481 17.544 14.121 24.563 22.944 7.017 8.816 12.687 18.627 17.004 29.423l60.465-60.463z" fill="#24894B"/></g></g><g transform="matrix(1 0 0 -1 1101.333 1792)"><mask id="e" fill="#fff"><use xlink:href="#c"/></mask><path d="M121.315 381.173c-23.942-10.441-44.808-24.657-62.626-42.648-17.816-18-31.944-38.964-42.38-62.894C5.868 251.693.656 226.048.656 198.7c0-27.356 5.212-53.001 15.653-76.929 10.436-23.94 24.564-44.901 42.38-62.893 17.818-18 38.684-32.215 62.626-42.651C145.243 5.787 170.887.573 198.243.573c27.346 0 52.99 5.214 76.928 15.655 23.932 10.436 44.81 24.65 62.625 42.65 17.816 17.993 31.936 38.954 42.379 62.894 10.433 23.928 15.654 49.573 15.654 76.93 0 27.346-5.221 52.991-15.654 76.929-10.443 23.93-24.563 44.894-42.379 62.894-17.815 17.991-38.693 32.207-62.625 42.648-23.938 10.434-49.582 15.655-76.928 15.655-27.356 0-53-5.221-76.928-15.655m31.58-289.904c-14.036 6.115-26.275 14.483-36.712 25.103-10.443 10.612-18.716 22.945-24.831 36.981-6.125 14.036-9.179 29.154-9.179 45.348 0 16.195 3.054 31.311 9.179 45.348 6.115 14.036 14.388 26.36 24.83 36.98 10.438 10.612 22.677 18.98 36.713 25.104 14.034 6.114 29.152 9.176 45.348 9.176 15.833 0 30.772-3.062 44.806-9.176 14.036-6.124 26.363-14.492 36.98-25.104 10.612-10.62 18.98-22.944 25.103-36.98 6.12-14.037 9.181-29.153 9.181-45.348 0-16.194-3.061-31.312-9.181-45.348-6.123-14.036-14.49-26.369-25.103-36.981-10.617-10.62-22.944-18.988-36.98-25.103-14.034-6.124-28.973-9.177-44.806-9.177-16.196 0-31.314 3.053-45.348 9.177" fill="url(#d)" mask="url(#e)"/></g><g transform="matrix(1 0 0 -1 0 2560)"><mask id="g" fill="#fff"><use xlink:href="#f"/></mask><g mask="url(#g)"><g transform="translate(1564 768)"><mask id="i" fill="#fff"><use xlink:href="#h"/></mask><path fill="#24894B" d="M264 397.333h84.221V1.08h-92.858L84.769 258.052V1.079H.551v396.794h92.858L264 140.904z" transform="translate(.631 -1.046)" opacity=".3" mask="url(#i)"/></g><path d="M1103.212 768.573c39.764.45 79.528.644 119.292.973l119.29.558c39.764.24 79.528.196 119.292.285l119.292.181 238.583-.46 119.292-.557c39.764-.332 79.527-.527 119.292-.98-39.765-.453-79.528-.648-119.292-.98l-119.292-.559-238.583-.458-119.292.18c-39.764.089-79.528.045-119.292.286l-119.29.556c-39.764.33-79.528.524-119.292.975m-49.271 392.641l145.628.973 145.627.557 291.255.467 291.254-.46 145.627-.557 145.628-.98-145.628-.98-145.627-.56-291.254-.458-291.255.467-145.627.556z" fill="#24894B"/><path d="M1507.21 1237.318c19.077-27.978 37.94-56.098 56.916-84.142l56.565-84.374c18.901-28.094 37.564-56.346 56.34-84.522l56.253-84.581 55.954-84.779c18.62-28.278 37.37-56.474 55.868-84.836l55.636-84.988c18.425-28.41 36.962-56.745 55.285-85.22-19.077 27.974-37.941 56.094-56.919 84.136l-56.568 84.374c-18.902 28.092-37.557 56.349-56.337 84.524l-56.25 84.582-55.95 84.78c-18.627 28.278-37.365 56.479-55.865 84.839l-55.638 84.988c-18.426 28.41-36.965 56.743-55.29 85.219m96.601 11.708c16.17-23.657 32.13-47.457 48.199-71.181l47.85-71.412c15.995-23.774 31.755-47.706 47.624-71.562l47.536-71.618 47.238-71.818c15.716-23.958 31.558-47.833 47.15-71.874l46.922-72.026c15.516-24.09 31.15-48.104 46.566-72.26-16.173 23.656-32.13 47.455-48.204 71.178l-47.852 71.412c-15.997 23.772-31.745 47.709-47.618 71.564l-47.535 71.621-47.235 71.819c-15.72 23.956-31.553 47.837-47.148 71.876l-46.92 72.026c-15.52 24.087-31.154 48.102-46.573 72.255" fill="#24894B"/><path d="M1912.764 661.978c-.45 22.785-.644 45.57-.974 68.356l-.556 68.355c-.242 22.785-.198 45.57-.286 68.356l-.181 68.354.177 68.356c.095 22.786.039 45.57.283 68.356l.557 68.355c.332 22.785.527 45.57.98 68.356.454-22.785.648-45.57.98-68.356l.559-68.355c.243-22.785.187-45.57.281-68.356l.178-68.356-.182-68.354c-.088-22.786-.044-45.571-.285-68.356l-.556-68.355c-.33-22.785-.524-45.57-.975-68.356m-346.281 32.905c-.45 21.414-.644 42.828-.975 64.242l-.556 64.242c-.241 21.414-.197 42.828-.285 64.242l-.181 64.243.177 64.241c.095 21.415.039 42.828.283 64.243l.557 64.241c.332 21.416.527 42.831.98 64.244.453-21.413.648-42.828.98-64.244l.557-64.24c.244-21.416.188-42.829.283-64.244l.177-64.24-.181-64.244c-.088-21.414-.044-42.828-.285-64.242l-.556-64.242c-.331-21.414-.524-42.828-.975-64.242m83.044-73.643c-.45 26.157-.644 52.314-.973 78.472l-.557 78.474c-.24 26.158-.196 52.315-.286 78.474l-.181 78.473.179 78.473c.093 26.159.037 52.316.281 78.474l.557 78.473c.334 26.159.527 52.316.98 78.473.455-26.157.648-52.314.98-78.473l.559-78.473c.244-26.158.187-52.315.281-78.474l.179-78.473-.181-78.473c-.09-26.16-.046-52.316-.286-78.474l-.557-78.474c-.33-26.158-.524-52.315-.975-78.472m178.625-11.71c-.45 26.157-.644 52.316-.973 78.473l-.557 78.474c-.242 26.158-.196 52.316-.286 78.473l-.181 78.473.177 78.474c.095 26.158.039 52.316.283 78.474l.557 78.472c.334 26.159.527 52.316.98 78.475.455-26.159.648-52.316.98-78.475l.559-78.472c.243-26.158.187-52.316.281-78.474l.179-78.474-.183-78.473c-.088-26.157-.044-52.315-.285-78.473l-.556-78.474c-.33-26.157-.524-52.316-.975-78.473" fill="#24894B"/><path d="M1103.212 965.143c0 108.847 88.238 197.084 197.085 197.084 108.848 0 197.084-88.237 197.084-197.084 0-108.848-88.236-197.085-197.084-197.085-108.847 0-197.085 88.237-197.085 197.085z" stroke="#24894B" stroke-width="4"/><path d="M1182.313 965.113c0 65.16 52.823 117.983 117.984 117.983 65.16 0 117.983-52.823 117.983-117.983 0-65.161-52.823-117.984-117.983-117.984-65.161 0-117.984 52.823-117.984 117.984z" stroke="#24894B" stroke-width="4"/><path fill="#DDEFE0" d="M459.758 1264.405v541.816l259.271-197.848 259.276 197.848v-541.816zm1172.337 0h-653.79l327.553 541.816z"/><path d="M2151.631 1535.31c0 106.57-76.609 270.911-258.942 270.911h-260.594v-541.816h260.594c182.333 0 258.942 164.341 258.942 270.904" fill="#DDEFE0"/><path fill="#24894B" d="M1305.2 1264.402l.66 197.84 326.235-197.836zm-846.04.002l.598 541.817 259.104-541.817z"/><path fill="#4BA36A" d="M718.862 1264.404l-.003 343.966 259.276 197.848zm586.34-.002l-326.897.003 327.558 197.837z"/><path fill="#9BCCA1" d="M1305.86 1462.24l-327.555-197.835 327.553 541.816zm-586.998-197.836L459.758 1806.22l259.27-197.85zm1150.303 270.24l-237.07-270.242h260.594c182.334 0 258.943 164.341 258.943 270.904"/><path fill="#24894B" d="M1631.34 1535.31v270.911l237.07-271.577z"/><path fill="#4BA36A" d="M1868.409 1534.644l-237.07-270.24v270.906z"/><path fill="#FFF" d="M457.87 1263.738v541.816l259.271-197.848 259.276 197.848v-541.816zm1172.337 0h-653.79l327.554 541.816zm519.536 270.904c0 106.571-76.609 270.912-258.942 270.912h-260.594V1263.74h260.594c182.333 0 258.942 164.34 258.942 270.903"/><g transform="translate(1302.667 1262.667)"><mask id="k" fill="#fff"><use xlink:href="#j"/></mask><path d="M0 0l.661 197.84L326.895.004z" transform="translate(.646 1.07)" opacity=".22" mask="url(#k)" fill="#231F20"/></g><g transform="translate(456 1262.667)"><mask id="m" fill="#fff"><use xlink:href="#l"/></mask><path d="M0 0l.599 541.817L259.703 0z" transform="translate(1.272 1.07)" opacity=".22" mask="url(#m)" fill="#231F20"/></g><g transform="translate(716 1262.667)"><mask id="o" fill="#fff"><use xlink:href="#n"/></mask><path fill="#231F20" d="M1.333 0l-.002 343.967 259.276 197.848z" transform="translate(-.359 1.07)" opacity=".16" mask="url(#o)"/></g><g transform="translate(976 1262.667)"><mask id="q" fill="#fff"><use xlink:href="#p"/></mask><path fill="#231F20" d="M328 0L1.104.003 328.661 197.84z" transform="translate(-.686 1.07)" opacity=".16" mask="url(#q)"/></g><g transform="translate(976 1262.667)"><mask id="s" fill="#fff"><use xlink:href="#r"/></mask><path fill="#231F20" d="M328 198.667L.444.832l327.553 541.816z" transform="translate(-.026 .24)" opacity=".1" mask="url(#s)"/></g><g transform="translate(457.333 1262.667)"><mask id="u" fill="#fff"><use xlink:href="#t"/></mask><path fill="#231F20" d="M260 0L.896 541.817l259.27-197.85z" transform="translate(-.359 1.07)" opacity=".1" mask="url(#u)"/></g><g transform="translate(1629.333 1262.667)"><mask id="w" fill="#fff"><use xlink:href="#v"/></mask><path d="M237.333 270.667L.263.424h260.594C443.191.424 519.8 164.765 519.8 271.328" transform="translate(.61 .645)" opacity=".1" mask="url(#w)" fill="#231F20"/></g><g transform="translate(1629.333 1533.333)"><mask id="y" fill="#fff"><use xlink:href="#x"/></mask><path fill="#231F20" d="M0 1.333v270.912L237.07.668z" transform="translate(.874 -.024)" opacity=".22" mask="url(#y)"/></g><g transform="translate(1629.333 1262.667)"><mask id="A" fill="#fff"><use xlink:href="#z"/></mask><path d="M237.333 270.667L.263.427v270.905z" transform="translate(.61 .645)" opacity=".16" mask="url(#A)" fill="#231F20"/></g></g></g></g></svg>