<svg width="887" height="287" viewBox="0 0 887 287" xmlns="http://www.w3.org/2000/svg" xmlns:xlink="http://www.w3.org/1999/xlink"><title>Untitled</title><defs><path id="a" d="M.17.33h886v286H.17z"/><path id="c" d="M0 1333.333h1334.333V0H0z"/><path id="e" d="M1.031 103.373h170.715V.133H1.031z"/><path id="g" d="M.869 282.875h135.624V.133H.869z"/><path id="i" d="M.39 282.873h135.4V.133H.39z"/><path id="k" d="M1.111 103.373h171.062V.133H1.111z"/><path id="m" d="M1.111 282.875h171.06V.135H1.112z"/><path id="o" d="M1.182 282.875H136.58V.133H1.182z"/><path id="q" d="M.951 141.501h271.317V.133H.95z"/><path id="s" d="M.951 142.875h123.805V1.156H.951z"/><path id="u" d="M.951 141.503h123.805V.135H.951z"/></defs><g fill="none" fill-rule="evenodd"><mask id="b" fill="#fff"><use xlink:href="#a"/></mask><g mask="url(#b)"><path fill="#FFF" d="M1.35 284.865V2.125L136.747 105.37 272.15 2.125v282.74zm612.227 0H272.15L443.207 2.125z"/><g transform="matrix(1 0 0 -1 -224 810.333)"><mask id="d" fill="#fff"><use xlink:href="#c"/></mask><g mask="url(#d)"><path d="M1108.897 666.839c0 55.613-40.007 141.372-135.228 141.372H837.58v-282.74h136.09c95.221 0 135.228 85.759 135.228 141.368" fill="#FFF"/><g transform="translate(665.834 525.337)"><mask id="f" fill="#fff"><use xlink:href="#e"/></mask><path d="M0 0l.346 103.241L170.713.001z" transform="translate(1.032 .133)" opacity=".22" mask="url(#f)" fill="#000"/></g><g transform="translate(224.17 525.337)"><mask id="h" fill="#fff"><use xlink:href="#g"/></mask><path d="M0 0l.312 282.741L135.626 0z" transform="translate(.869 .133)" opacity=".22" mask="url(#h)" fill="#000"/></g><g transform="translate(360.272 525.337)"><mask id="j" fill="#fff"><use xlink:href="#i"/></mask><path fill="#000" d="M1.334 0l-.001 179.495L136.734 282.74z" transform="translate(-.943 .133)" opacity=".16" mask="url(#j)"/></g><g transform="translate(495.04 525.337)"><mask id="l" fill="#fff"><use xlink:href="#k"/></mask><path d="M170.795 0L.08.001l171.06 103.24z" transform="translate(1.033 .133)" opacity=".16" mask="url(#l)" fill="#000"/></g><g transform="translate(495.04 525.337)"><mask id="n" fill="#fff"><use xlink:href="#m"/></mask><path fill="#000" d="M172.129 104L1.07.763l171.058 282.74z" transform="translate(.043 -.628)" opacity=".1" mask="url(#n)"/></g><g transform="translate(224.17 525.337)"><mask id="p" fill="#fff"><use xlink:href="#o"/></mask><path d="M136.102 0L.79 282.741l135.397-103.245z" transform="translate(.392 .133)" opacity=".1" mask="url(#p)" fill="#000"/></g><g transform="translate(836.629 525.337)"><mask id="r" fill="#fff"><use xlink:href="#q"/></mask><path d="M124.093 141.333L.288.311h136.09c95.22 0 135.228 85.758 135.228 141.368" fill="#000" transform="translate(.663 -.177)" opacity=".1" mask="url(#r)"/></g><g transform="translate(836.629 665.337)"><mask id="t" fill="#fff"><use xlink:href="#s"/></mask><path d="M0 1.333v141.372L123.805.987z" transform="translate(.95 .17)" opacity=".22" mask="url(#t)" fill="#000"/></g><g transform="translate(836.629 525.337)"><mask id="v" fill="#fff"><use xlink:href="#u"/></mask><path fill="#000" d="M124.093 141.333L.288.312V141.68z" transform="translate(.663 -.177)" opacity=".16" mask="url(#v)"/></g></g></g></g></g></svg>