<svg id="Layer_1" xmlns="http://www.w3.org/2000/svg" viewBox="518.2 -61.5 962.8 541.4"><style>.st0{display:none;fill:#694489}.st1{fill:#fff}</style><path class="st0" d="M363.8-100.7h1257.7V612H363.8z"/><path class="st1" d="M1168.4 323.4L1052 131.8v-88H947v88L830.6 323.4 814 350.8h371l-16.6-27.4zm-206-182.3l2.6-4.3v-75h69v75l2.6 4.3 72.7 119.7c-25.8 1.4-51.7-2.3-78.9-11.4l-8.1-2.7c-4.2-1.4-8.5-2.9-12.8-4.3 1.6-3.9 2.4-8.1 2.4-12.4 0-18.4-15-33.4-33.4-33.4-17.5 0-32 13.6-33.2 30.8l-3-.3c-10.3-.7-21.2-1.3-32.2-.2l52.3-85.8zm34.7 97.4c-12.6-3.9-25.5-7.2-38.8-9.3.5-10.8 9.4-19.4 20.3-19.4 11.2 0 20.4 9.1 20.4 20.4-.1 2.8-.7 5.7-1.9 8.3zM846 332.8l52.4-86.3 2.4-.6c13.2-3.1 27.2-2.5 40.3-1.6 26 1.8 50.2 10 75.8 18.6l8.1 2.7c25.3 8.4 49.5 12.5 73.7 12.5 6.5 0 12.9-.3 19.4-.9l1.1-.1 33.8 55.7H846zm208.6-381.3c11.3 0 20.4 9.1 20.4 20.4s-9.1 20.4-20.4 20.4-20.4-9.1-20.4-20.4c0-11.3 9.2-20.4 20.4-20.4m0-13c-18.4 0-33.4 15-33.4 33.4s15 33.4 33.4 33.4 33.4-15 33.4-33.4-15-33.4-33.4-33.4zM520.2 400.3H534v65.3h33v12.3h-46.8v-77.6zm96.7 0h11.9l33.4 77.5h-15.8l-7.2-17.7h-33.6l-7 17.7h-15.4l33.7-77.5zm17.5 48l-11.9-31.5-12.2 31.5h24.1zm47.7-48h30.2c2.9 0 5.8.3 8.7 1 2.8.7 5.4 1.8 7.6 3.4 2.2 1.6 4 3.6 5.4 6.1 1.4 2.5 2.1 5.5 2.1 9 0 4.4-1.2 8-3.7 10.8-2.5 2.8-5.7 4.9-9.7 6.1v.2c4.9.7 8.9 2.6 12 5.7 3.1 3.1 4.7 7.3 4.7 12.6 0 4.2-.8 7.8-2.5 10.7-1.7 2.9-3.9 5.2-6.6 7s-5.9 3-9.4 3.8c-3.5.8-7.1 1.1-10.8 1.1h-27.9l-.1-77.5zm13.8 31.6h12.3c4.6 0 8.1-.9 10.5-2.7 2.4-1.8 3.6-4.4 3.6-7.8 0-3.5-1.2-6-3.7-7.4-2.5-1.5-6.4-2.2-11.6-2.2h-11.1v20.1zm0 34.4h12.4c1.8 0 3.6-.1 5.7-.4 2-.3 3.9-.8 5.6-1.6 1.7-.8 3.1-2 4.3-3.5 1.1-1.5 1.7-3.6 1.7-6.1 0-4.1-1.4-6.9-4.2-8.5-2.8-1.6-7-2.4-12.6-2.4h-12.9v22.5zm107.2-49.7c-1.5-1.9-3.5-3.5-6.2-4.8-2.7-1.3-5.3-1.9-8-1.9-1.6 0-3.2.2-4.8.6-1.6.4-3.1 1-4.4 1.9-1.3.8-2.4 1.9-3.2 3.3-.8 1.4-1.3 3-1.3 4.9 0 1.8.4 3.2 1.1 4.5.7 1.2 1.7 2.3 3 3.2 1.3.9 2.8 1.6 4.7 2.3 1.8.7 3.8 1.3 6 2 2.5.8 5.1 1.7 7.7 2.7 2.7 1 5.1 2.4 7.3 4.1 2.2 1.7 4.1 3.8 5.5 6.4 1.4 2.6 2.1 5.7 2.1 9.5 0 4.2-.8 7.8-2.3 10.9-1.5 3.1-3.6 5.7-6.1 7.7-2.6 2-5.5 3.6-9 4.6-3.4 1-7 1.5-10.8 1.5-5 0-10-.9-14.8-2.8-4.8-1.9-8.8-4.6-11.8-8.3l9.9-9.2c1.9 2.6 4.4 4.7 7.6 6.2 3.2 1.5 6.3 2.3 9.4 2.3 1.6 0 3.2-.2 4.9-.6 1.7-.4 3.2-1.1 4.5-2 1.3-.9 2.4-2.1 3.3-3.6.8-1.4 1.3-3.2 1.3-5.3 0-2-.5-3.7-1.4-5.1-1-1.3-2.2-2.5-3.8-3.5-1.6-1-3.5-1.8-5.7-2.6-2.2-.7-4.5-1.5-6.9-2.3-2.3-.7-4.7-1.6-7-2.6s-4.4-2.4-6.3-4.1c-1.9-1.7-3.4-3.7-4.5-6.2-1.2-2.4-1.8-5.5-1.8-9.1 0-3.9.8-7.3 2.5-10.2 1.6-2.8 3.8-5.2 6.5-7.1 2.7-1.9 5.7-3.2 9.1-4.2 3.4-.9 6.8-1.4 10.3-1.4 3.9 0 7.9.7 12 2.1 4.1 1.4 7.6 3.5 10.6 6.2l-9.2 10zM794 80.2v252.6H536.2V80.2l118 90 10.9 8.3 10.9-8.3 118-90m18-36.4L665.1 155.9 518.2 43.8v307H812v-307zm522.3 18c21.4 0 41 4.5 58.2 13.5 15.2 7.9 28.5 19.2 39.6 33.6 22.8 29.5 30.9 65 30.9 88.4s-8.1 58.9-30.9 88.4c-11.1 14.4-24.5 25.7-39.6 33.6-17.2 8.9-36.8 13.5-58.2 13.5h-129.7v-271h129.7m0-18h-147.7v307h147.7c103.3 0 146.7-93.1 146.7-153.5s-43.4-153.5-146.7-153.5z"/></svg>