<svg id="Layer_1" xmlns="http://www.w3.org/2000/svg" viewBox="0 0 512 512"><style>.st0,.st1{fill:none;stroke:#000;stroke-width:14.7463;stroke-miterlimit:10}.st1{stroke-width:19.2837}</style><path d="M300.6 158.9V244l135 222.3H87.4l135-222.3v-85.1h78.2m20.5-20.4H201.9v99.8l-132 217.5-18.8 31h420.8l-18.8-31-132-217.5v-99.8z"/><path class="st0" d="M260.7 369.7c4.9-5.6 7.5-12.6 7.5-20 0-16.8-13.6-30.5-30.5-30.5s-30.5 13.6-30.5 30.5"/><path class="st1" d="M139.7 360.3l7.5-2c16-3.9 32.4-3.2 48.8-2 33.9 2.4 65.7 14 97.6 24.6 33.1 11 66.8 16 101.6 12.8l9-.9"/><path d="M324 33.8c12.8 0 23.1 10.3 23.1 23.1S336.8 80 324 80s-23.1-10.3-23.1-23.1 10.4-23.1 23.1-23.1m0-14.8c-20.9 0-37.9 17-37.9 37.9s17 37.9 37.9 37.9 37.9-17 37.9-37.9S344.9 19 324 19z"/></svg>