<svg xmlns="http://www.w3.org/2000/svg" width="220" height="60"><title>Logo for Andreessen Horowitz</title><path d="M58.56 1.476c-2.491-.008-3.843.043-3.395.138 2.05.436 1.998.08 1.912 11.696-.081 11.088-.074 11.013-1.458 11.225-.382.058.061.138.988.178.928.04 3.028.16 4.669.26 4.808.29 5.487.278 7.335-.114 6.57-1.392 10.67-7.927 9.231-14.71-.616-2.903-2.883-5.986-5.292-7.19-2.382-1.189-3.491-1.334-11.145-1.45a254.32 254.32 0 0 0-2.844-.033zm4.158.714c3.45-.087 7.387 1.305 9.524 3.477 3.314 3.367 4.216 9.055 2.131 13.462-.847 1.791-2.792 3.568-4.741 4.328-2.743 1.07-8.303.904-9.49-.284-.207-.206-.293-3.273-.293-10.455V2.554l1.427-.235c.466-.075.95-.117 1.442-.13zm81.539 22.804c-1.738-.527-1.8-.631-1.8-2.99 0-1.199.116-2.252.259-2.34.155-.096.26.235.26.827.002 2.215 1.885 3.712 4.67 3.712 1.835 0 2.817-.43 3.733-1.63.813-1.066 1.071-2.599.682-4.044-.322-1.197-1.223-2.193-5.242-5.797-2.66-2.384-3.585-3.957-3.585-6.095 0-3.477 2.208-5.604 5.836-5.621 2.86-.014 4.868.326 4.688.794-.082.214-.161 1.168-.176 2.119-.024 1.649-.037 1.682-.266.705-.432-1.845-1.773-2.736-4.117-2.736-2.653 0-4.146 1.316-4.148 3.657-.002 1.578.86 2.832 3.37 4.907 4.21 3.478 5.246 4.737 5.72 6.944.644 3.009-.707 5.77-3.465 7.074-1.38.653-1.898.756-3.681.737-1.141-.012-2.374-.112-2.738-.223zm17.071-.154c-1.468-.468-1.573-.759-1.266-3.49.12-1.07.235-1.603.255-1.185.067 1.456 1.008 2.923 2.266 3.532 1.63.79 4.319.653 5.474-.278 1.062-.856 1.632-2.088 1.632-3.53 0-1.755-.623-2.778-2.95-4.846-4.77-4.238-5.66-5.403-5.975-7.828-.2-1.531.1-2.7 1.037-4.054 1.33-1.918 3.773-2.516 7.953-1.947l1.49.202-.017 1.992c-.014 1.612-.067 1.868-.28 1.343-.972-2.39-1.837-2.922-4.553-2.799-1.654.075-1.958.171-2.662.846-1.529 1.464-1.568 3.837-.093 5.59.374.445 1.816 1.728 3.203 2.852 3.783 3.063 4.922 4.787 4.922 7.454 0 2.5-1.106 4.4-3.314 5.694-1.027.602-1.538.713-3.547.774-1.56.047-2.758-.06-3.575-.321zM43.061 20.255a411.285 411.285 0 0 1-8.947-9.584c-2.392-2.663-4.444-4.851-4.561-4.863-.267-.025.046 14.344.358 16.43.126.844.347 1.653.49 1.797.144.143.76.342 1.37.441.683.111-.283.18-2.524.179-1.997-.001-3.223-.074-2.723-.162 1.483-.263 1.525-.606 1.541-12.796.012-8.547.083-10.794.339-10.693.178.07 4.4 4.56 9.381 9.976 4.981 5.417 9.096 9.81 9.143 9.763.047-.047-.012-4.136-.13-9.087-.24-10.049-.144-9.604-2.134-9.994-.881-.173-.299-.227 2.478-.228 2.333-.001 3.321.071 2.764.203-.476.113-1.002.34-1.167.505-.215.216-.32 3.467-.373 11.57-.055 8.646-.146 11.27-.389 11.276-.174.005-2.386-2.125-4.916-4.733zm65.679 4.466c-1.64-.086-2.666-.179-2.279-.207 1.341-.099 1.371-.35 1.371-11.551V2.63l-.612-.497c-.337-.272-.979-.52-1.427-.551-.552-.038 10.893-.35 12.198-.333.024 0-.04.876-.142 1.945-.156 1.644-.215 1.818-.382 1.129-.368-1.518-.926-1.765-4.215-1.87l-2.956-.093v9.392h3.19c2.11 0 3.294-.104 3.497-.307.506-.505.569-.155.363 2.007-.177 1.859-.215 1.966-.392 1.092-.108-.534-.408-1.083-.667-1.222-.26-.138-1.722-.333-3.252-.432l-2.78-.18.085 4.929c.064 3.683.175 5.036.44 5.354.573.69 2.196.986 4.334.793 2.242-.203 2.807-.547 3.373-2.048l.39-1.038-.138 1.633c-.228 2.696-.167 2.655-3.849 2.595a207.97 207.97 0 0 1-6.15-.208zm18.155 0c-1.64-.086-2.666-.179-2.279-.207 1.341-.099 1.371-.35 1.371-11.551V2.63l-.612-.497c-.337-.272-.979-.52-1.427-.551-.552-.038 10.893-.35 12.198-.333.024 0-.04.876-.142 1.945-.156 1.644-.215 1.818-.382 1.129-.374-1.544-.92-1.778-4.15-1.778h-2.891l-.071 4.604-.071 4.603h3.006c1.658 0 3.24-.125 3.53-.28.287-.154.571-.232.63-.173.06.06.028 1.032-.07 2.161-.17 1.938-.193 1.998-.417 1.075-.13-.538-.442-1.087-.692-1.221-.25-.134-1.697-.324-3.215-.422l-2.76-.179.015 4.383c.017 5.316.206 6.056 1.665 6.534 1.337.438 4.871.163 5.606-.436.283-.23.69-.886.905-1.456l.39-1.038-.138 1.633c-.228 2.696-.167 2.655-3.849 2.595a207.97 207.97 0 0 1-6.15-.208zm53.168 0c-1.64-.086-2.676-.179-2.301-.207 1.39-.106 1.387-.081 1.47-11.245l.075-10.335-.648-.648c-.384-.384-.995-.671-1.502-.706-.47-.031 2.063-.119 5.63-.194 3.565-.075 6.515-.124 6.553-.11.039.015-.008.87-.104 1.902l-.174 1.874-.333-.968c-.183-.532-.486-1.063-.674-1.18-.561-.35-2.295-.525-4.361-.439l-1.945.081-.071 4.604-.07 4.603h3.005c1.658 0 3.24-.125 3.53-.28.287-.154.582-.221.655-.149.072.072.035 1.045-.083 2.16-.13 1.25-.246 1.704-.3 1.182-.128-1.26-.82-1.565-4.008-1.771l-2.788-.18.015 4.382c.009 2.677.135 4.735.324 5.29.427 1.251 1.661 1.644 4.416 1.403 2.344-.204 3.18-.717 3.56-2.185.183-.706.209-.513.117.877-.065.979-.253 1.942-.417 2.14-.318.383-3.5.417-9.571.1zm32.424-4.125c-2.454-2.484-6.563-6.831-9.132-9.662-2.569-2.83-4.733-5.146-4.81-5.146-.216 0 .204 15.825.45 16.955.274 1.256.51 1.49 1.739 1.728.614.119-.332.186-2.516.179-1.926-.007-3.122-.059-2.659-.116.52-.065.967-.322 1.167-.672.243-.424.345-3.41.405-11.815l.08-11.249.665.615c.366.338 4.516 4.787 9.22 9.886 4.706 5.1 8.63 9.273 8.722 9.273.425 0-.13-17.671-.574-18.275-.164-.223-.823-.508-1.465-.633-.912-.178-.402-.23 2.335-.234 2.456-.005 3.269.063 2.723.226-1.446.43-1.424.261-1.452 11.638-.015 5.786-.119 10.811-.232 11.168-.195.614-.441.41-4.666-3.866zM11.876.958c-.321.028-.927 1.635-4.19 10.617C5.76 16.881 3.97 21.687 3.715 22.257c-.594 1.336-1.333 1.978-2.545 2.213-.6.116.42.192 2.658.194 2.36.003 3.325-.068 2.756-.202-1.04-.246-1.36-.672-1.167-1.556.339-1.557 2.277-7.154 2.537-7.327.382-.256 6.428-.24 6.832.016.175.111 1.005 2.002 1.848 4.207 1.123 2.936 1.472 4.133 1.297 4.465-.223.422-.015.454 2.942.43 2.567-.021 2.985-.073 2.156-.268-2.092-.49-2.28-.85-7.181-13.664-2.002-5.234-3.733-9.612-3.85-9.734-.041-.044-.076-.077-.122-.073zm-.55 4.652c.205.069 3.239 8.264 3.257 8.802.004.107-1.43.194-3.193.194H8.18l1.451-4.538c.8-2.497 1.563-4.502 1.694-4.458zm73.17-4.15c-1.892.012-2.813.07-2.358.162.559.114 1.154.401 1.33.64.741 1.015.834 19.875.104 21.47-.226.495-.555.73-1.126.803-.444.056.94.104 3.08.105 2.14.001 3.37-.068 2.731-.154-1.679-.225-1.81-.633-1.815-5.535l-.009-4.085h4.418l1.223 1.734c2.276 3.207 5.193 6.742 6.071 7.367.78.557 1.164.627 3.72.665 1.926.029 2.474-.012 1.686-.138-2.327-.37-3.515-1.408-7.756-6.767l-2.797-3.534.9-1.03c3.871-4.425 3.67-9.206-.462-11.111-1.053-.486-1.71-.54-6.743-.584a155.96 155.96 0 0 0-2.197-.008zm4.312.697c3.469.018 5.618 2.701 5.358 6.97-.124 2.027-.75 3.457-1.848 4.24-.785.558-2.98.856-4.199.567a59.626 59.626 0 0 0-1.102-.252c-.583-.124-.584-.13-.584-5.665V2.481l.81-.162a7.796 7.796 0 0 1 1.565-.162zM50.7 34.908c-2.646.024-5.255.733-7.172 2.14-1.625 1.192-3.449 3.542-4.117 5.308-2.647 6.995.808 14.568 7.52 16.494 1.871.537 6.55.334 8.325-.365 3.189-1.254 6.04-4.345 7.051-7.643.78-2.545.775-6.4-.008-8.575-.645-1.79-2.014-3.73-3.404-4.83-2.15-1.703-5.195-2.556-8.194-2.529zm-1.166.989c.37-.003.794.003 1.313.024 2.128.085 2.658.203 3.858.86 4.234 2.316 6.343 8.068 5.106 13.907-.72 3.392-2.216 5.435-4.944 6.744-1.31.628-1.864.74-3.502.72-1.07-.011-2.237-.11-2.593-.218-3.53-1.078-6.25-4.327-7.14-8.526-1.267-5.976.898-11.382 5.219-13.009.967-.364 1.57-.493 2.683-.502zm51.741-.989c-2.646.024-5.255.733-7.172 2.14-1.625 1.192-3.45 3.542-4.118 5.308-2.646 6.995.808 14.568 7.522 16.494 1.87.537 6.548.334 8.323-.365 3.19-1.254 6.041-4.345 7.052-7.643.78-2.545.774-6.4-.008-8.575-.645-1.79-2.015-3.73-3.405-4.83-2.15-1.703-5.194-2.556-8.194-2.529zm-1.167.989c.371-.003.795.003 1.313.024 2.129.085 2.658.203 3.858.86 4.234 2.316 6.344 8.068 5.106 13.907-.719 3.392-2.216 5.435-4.944 6.744-1.31.628-1.864.74-3.501.72-1.07-.011-2.237-.11-2.594-.218-3.53-1.078-6.25-4.327-7.14-8.526-1.266-5.976.899-11.382 5.22-13.009.966-.364 1.569-.493 2.682-.502zm23.744 22.993c-.066-.178-1.236-4.058-2.601-8.623-3.514-11.75-3.967-13.166-4.391-13.72-.208-.27-.936-.641-1.618-.825-1.15-.309-.946-.332 2.78-.312 2.21.012 3.707.07 3.326.128-1.16.177-1.36.645-1.017 2.389.324 1.646 4.404 16.416 4.585 16.597.06.06.15.06.2 0 .051-.059 1.625-4.243 3.498-9.298 3.227-8.707 3.733-9.898 4.062-9.569.077.077 1.605 4.328 3.396 9.448s3.306 9.358 3.367 9.418c.06.06.16.059.223-.004.35-.35 5.074-16.74 5.074-17.603 0-.862-.097-1.054-.584-1.158l-1.102-.234c-.286-.06 1.057-.112 2.982-.113 2.049-.003 3.17.075 2.7.187-.44.106-.938.277-1.106.381-.67.414-1.67 3.03-4.814 12.602-1.804 5.492-3.395 10.16-3.536 10.374-.224.34-.301.33-.608-.07-.194-.253-1.178-2.82-2.188-5.706l-3.179-9.09c-.739-2.113-1.437-3.747-1.552-3.63-.115.116-1.683 4.172-3.484 9.013-1.8 4.84-3.387 9.013-3.526 9.272-.291.545-.715.615-.887.147zm66.136-.203c-.091-.147.914-1.927 2.235-3.955 6.875-10.559 11.438-17.654 11.562-17.978.115-.298-.385-.36-2.806-.351-1.62.006-4.158.111-5.639.234-2.489.206-2.75.28-3.452.981-.417.417-.921 1.217-1.12 1.776-.448 1.256-.47.837-.097-1.836l.29-2.075 8.075.088c4.441.048 8.108.12 8.149.16.04.04-3.081 4.94-6.938 10.886-3.856 5.946-7.012 10.864-7.012 10.927 0 .18 10.47.134 11.389-.05 1.078-.215 2.32-1.4 2.521-2.405.088-.441.276-.802.416-.802.255 0 .2.522-.348 3.307l-.269 1.361h-8.395c-5.5 0-8.453-.092-8.561-.268zM12.845 58.47c1.396-.3 1.426-.542 1.43-11.59.003-7.705-.074-10.234-.32-10.563-.179-.238-.791-.54-1.362-.672-.786-.181-.096-.239 2.853-.239 2.557 0 3.584.073 2.995.212-1.475.347-1.569.668-1.569 5.362v4.23h13.746v-4.23c0-2.976-.096-4.361-.324-4.672-.178-.243-.85-.544-1.491-.67-.889-.173-.238-.229 2.723-.233 2.685-.005 3.65.065 3.113.225-.428.128-.924.432-1.103.676-.469.641-.46 20.42.01 21.353.251.498.595.684 1.488.803.638.086-.59.156-2.73.156s-3.578-.048-3.196-.106c1.308-.2 1.374-.499 1.464-6.599l.083-5.666H16.872v5.148c0 6.622.048 6.768 2.335 7.128.356.056-1.103.104-3.242.107-2.14.003-3.544-.07-3.12-.16zm57.332-23.084c-2.935.018-4.536.105-3.947.22 1.95.376 1.864-.158 1.864 11.362 0 11.123-.026 11.34-1.362 11.542-.392.059.98.111 3.048.113 2.068.002 3.469-.041 3.112-.097-1.557-.245-1.774-.373-2.05-1.167-.159-.454-.284-2.537-.284-4.677v-3.858l2.27.073 2.269.073 1.296 1.791c3.121 4.312 5.33 6.893 6.338 7.408.845.43 1.495.52 3.575.495 2.22-.027 2.38-.06 1.28-.244-.691-.116-1.69-.492-2.22-.843-1.092-.722-3.426-3.295-6.298-6.93l-1.953-2.471 1.134-1.289c3.132-3.559 3.486-7.294.932-9.783-1.494-1.456-3.061-1.754-9.004-1.718zm3.031.762c2.007.06 3.462.99 4.41 2.804.621 1.192.72 1.692.72 3.51 0 2.392-.605 3.995-1.864 4.911-.648.473-3.031.843-3.712.576-.142-.056-.697-.178-1.232-.268l-.972-.162V36.424l1.167-.179a8.372 8.372 0 0 1 1.483-.097zm80.904 22.365c1.316-.202 1.387-.805 1.384-11.788-.002-9.378-.034-10.06-.48-10.554-.264-.291-.846-.575-1.295-.632-.449-.056.877-.109 2.945-.117 2.368-.01 3.44.06 2.894.19-.477.113-1.002.34-1.167.505-.218.218-.3 3.186-.3 10.764 0 9.83.029 10.496.48 10.996.266.292.907.577 1.427.632.52.055-.747.102-2.815.104-2.069.003-3.451-.042-3.073-.1zm17.927-.003c.408-.062.912-.404 1.167-.793.405-.619.448-1.658.448-10.94V36.521l-3.273.038c-3.589.04-4.14.206-4.91 1.47-.485.795-.503.802-.48.178.013-.357.161-1.232.328-1.945.278-1.187.359-1.286.948-1.168.354.072 4.583.13 9.397.13h8.753l-.015 1.945c-.014 1.848-.03 1.9-.324 1.04-.432-1.262-1.19-1.533-4.834-1.73l-3.154-.169.079 10.518c.073 9.819.11 10.553.56 11.049.264.292.906.577 1.426.632.52.055-.805.102-2.945.104-2.14.003-3.567-.044-3.172-.103z"/></svg>