<svg id="Layer_2" data-name="Layer 2" xmlns="http://www.w3.org/2000/svg" viewBox="0 0 613.71 288"><defs><style>.cls-1,.cls-2,.cls-3{fill:none;stroke-linecap:round;stroke-miterlimit:10;stroke-width:4.5px}.cls-1{stroke:#fbed1d}.cls-2{stroke:#d065a1}.cls-3{stroke:#59c9f3}.cls-4{fill:#231f20}</style></defs><path class="cls-1" d="M64.47 131.17a81 81 0 0 0 15.77-15.67 78.6 78.6 0 0 0 7.32-11.5 80.15 80.15 0 0 0 6.28-15.7 81.12 81.12 0 0 0 3-22c0-2.74-.14-5.45-.4-8.12"/><path class="cls-2" d="M107.89 59.28q.25 3.47.26 7a92.34 92.34 0 0 1-3.2 24.19 90.93 90.93 0 0 1-4.83 13.53 90.25 90.25 0 0 1-6.28 11.67 91.49 91.49 0 0 1-7.28 10 93.37 93.37 0 0 1-11.83 11.78"/><path class="cls-3" d="M86.52 58.43a72.79 72.79 0 0 1 .43 7.86 71 71 0 0 1-4.22 24.18 70.27 70.27 0 0 1-7.34 14.72 71.55 71.55 0 0 1-21.3 21.14"/><path class="cls-2" d="M76.43 59.87a59.21 59.21 0 0 1 .34 6.42 60.64 60.64 0 0 1-5.71 25.8A61.29 61.29 0 0 1 40.73 122"/><path class="cls-1" d="M66.34 62.6c.1 1.22.14 2.45.14 3.69 0 28.06-23.06 49.54-50.56 51.7-1.05.08-3.11.24-4.22.41"/><path class="cls-3" d="M93.5 154.23a104.38 104.38 0 0 0-10.23-10.16 105.1 105.1 0 0 0-8.54-6.61 103.16 103.16 0 0 0-10.26-6.29 98.89 98.89 0 0 0-10.38-4.83A99.6 99.6 0 0 0 40.73 122c-8-2-16.42-2.4-25-3.26-1.45-.15-2.5-.22-4-.37"/><path class="cls-2" d="M9 130.29q3.65-.28 7.37-.29a92.44 92.44 0 0 1 24 3.16 90.18 90.18 0 0 1 13.48 4.78 88.11 88.11 0 0 1 11.67 6.23 91 91 0 0 1 9.22 6.61 92.19 92.19 0 0 1 12.09 11.86"/><path class="cls-1" d="M7.93 141.71a83.76 83.76 0 0 1 8.43-.43 80.9 80.9 0 0 1 21.92 3 80.92 80.92 0 0 1 26.31 12.88 81.14 81.14 0 0 1 15.94 15.58"/><path class="cls-3" d="M75.65 182.91a71.24 71.24 0 0 0-21.42-20.82 69.92 69.92 0 0 0-13.74-6.7 70.85 70.85 0 0 0-24.12-4.2 72.57 72.57 0 0 0-8.12.46"/><path class="cls-2" d="M9.73 161.73a61.24 61.24 0 0 1 31.19 4.78 61.33 61.33 0 0 1 30.38 29.23"/><path class="cls-1" d="M12.5 171.81c1.27-.1 2.56-.15 3.86-.15 28.06 0 50.6 22.76 51.46 50.8 0 1.05.11 2.33.12 3.44"/><path class="cls-3" d="M16.77 182a40.43 40.43 0 0 1 40 39.49"/><path class="cls-2" d="M23.8 193.8a29.66 29.66 0 0 1 21.12 20.84"/><path class="cls-3" d="M67.94 225.9c0-1.24-.07-2.3-.12-3.44-.48-9.23 1.21-18.2 3.49-26.72a101.84 101.84 0 0 1 4.34-12.83 100 100 0 0 1 4.88-10.17 101.85 101.85 0 0 1 6.33-10.1 99.69 99.69 0 0 1 6.64-8.41 104.38 104.38 0 0 1 9.88-9.85"/><path class="cls-2" d="M79.75 228.73q-.23-3.1-.22-6.27a92.24 92.24 0 0 1 33.12-70.9"/><path class="cls-1" d="M91.16 229.84q-.34-3.65-.34-7.38a81 81 0 0 1 32.11-64.66"/><path class="cls-3" d="M101.08 229.57q-.35-3.51-.35-7.11a71.2 71.2 0 0 1 32.6-59.87"/><path class="cls-2" d="M111.18 228.12c-.18-1.86-.27-3.75-.27-5.66a61.08 61.08 0 0 1 35.8-55.62"/><path class="cls-1" d="M121.29 225.38c-.06-1-.09-1.94-.09-2.92 0-28.05 22.53-51.92 50.59-51.92h4"/><path class="cls-3" d="M131.59 221.12a40.43 40.43 0 0 1 39.2-39.12"/><path class="cls-2" d="M143.65 213.93a29.63 29.63 0 0 1 19.9-19.84"/><path class="cls-3" d="M93.16 134.13a102.54 102.54 0 0 0 19.49 17.43 101.9 101.9 0 0 0 10.28 6.24 102.8 102.8 0 0 0 23.78 9c7.89 1.93 16.06 3.68 24.54 3.68 1.49 0 3 .07 4.5 0"/><path class="cls-2" d="M100.38 124.79a93.07 93.07 0 0 0 22.08 19.59 91.7 91.7 0 0 0 11.64 6.28 90 90 0 0 0 13.48 4.83 92 92 0 0 0 24.42 3.27c2.16 0 4.31-.07 6.43-.23"/><path class="cls-1" d="M179.6 147.1c-2.5.24-5 .36-7.6.36a81.45 81.45 0 0 1-22.28-3.09 80.65 80.65 0 0 1-15.6-6.28 79.39 79.39 0 0 1-11.19-7.09 81.07 81.07 0 0 1-16.3-16.53"/><path class="cls-3" d="M111.45 103.88A71.11 71.11 0 0 0 172 137.56a72.26 72.26 0 0 0 7.39-.38"/><path class="cls-2" d="M115.73 90.11A61.08 61.08 0 0 0 172 127.39a59.67 59.67 0 0 0 6-.3"/><path class="cls-1" d="M119.31 61c0 1.16.32 3.46.53 5.44 2.88 27.08 24.1 50.65 52.16 50.65 1.12 0 2.22 0 3.32-.11"/><path class="cls-3" d="M131.58 66.86a40.42 40.42 0 0 0 39.58 39.84"/><path class="cls-2" d="M143.38 73.88a29.64 29.64 0 0 0 20.84 21"/><path class="cls-3" d="M83.27 143.82a102 102 0 0 0 9.89-9.94 103.74 103.74 0 0 0 7.22-9.34 102.43 102.43 0 0 0 6.25-10.36 101.38 101.38 0 0 0 4.82-10.54 101.35 101.35 0 0 0 4.28-13.77c1.81-7.64 2.53-15.67 3.35-23.73.14-1.4.11-3.59.23-5.14M16.4 106.71a40.41 40.41 0 0 0 39.7-39.9"/><path class="cls-2" d="M23.32 94.9a29.63 29.63 0 0 0 21-21.11"/><path class="cls-4" d="M235.58 131.7v-25.4a2.61 2.61 0 0 1 .81-1.94 2.72 2.72 0 0 1 2-.79h9a16.94 16.94 0 0 1 12 4.39 14.37 14.37 0 0 1 4.7 11v.04a14.49 14.49 0 0 1-4.7 11 16.89 16.89 0 0 1-12 4.41h-9a2.72 2.72 0 0 1-2-.79 2.61 2.61 0 0 1-.81-1.92zm5.54-2.21h6.21a10.92 10.92 0 0 0 7.92-2.91 10 10 0 0 0 3-7.5V119a10.11 10.11 0 0 0-3-7.54 10.83 10.83 0 0 0-7.92-3h-6.21v21zm41.44 4.95a2.72 2.72 0 0 1-2-.79 2.61 2.61 0 0 1-.81-1.94V106.3a2.61 2.61 0 0 1 .81-1.94 2.72 2.72 0 0 1 2-.79h18.32a2.41 2.41 0 0 1 1.75.71 2.41 2.41 0 0 1 0 3.44 2.41 2.41 0 0 1-1.75.71H285.3v8h13.54a2.47 2.47 0 0 1 2.48 2.47 2.27 2.27 0 0 1-.72 1.68 2.41 2.41 0 0 1-1.75.71H285.3v8.29h15.8a2.44 2.44 0 0 1 1.73.71 2.28 2.28 0 0 1 .74 1.72 2.32 2.32 0 0 1-.72 1.72 2.41 2.41 0 0 1-1.75.71h-18.54zm47.38.44a19.58 19.58 0 0 1-11.83-3.88 2.5 2.5 0 0 1-.32-3.86 2.58 2.58 0 0 1 1.84-.73 2.7 2.7 0 0 1 1.62.49 14.11 14.11 0 0 0 8.82 3.17 6.86 6.86 0 0 0 4.07-1.08 3.3 3.3 0 0 0 1.51-2.8v-.09a3.18 3.18 0 0 0-1.44-2.73 18 18 0 0 0-5.67-2 42.78 42.78 0 0 1-4.5-1.32 13 13 0 0 1-3.24-1.72 6.2 6.2 0 0 1-2.09-2.58 9.06 9.06 0 0 1-.65-3.59v-.09a8 8 0 0 1 3-6.46 11.75 11.75 0 0 1 7.74-2.49 17.79 17.79 0 0 1 10 2.87 2.27 2.27 0 0 1 1.21 2.16 2.37 2.37 0 0 1-.77 1.79 2.58 2.58 0 0 1-1.84.73 2.79 2.79 0 0 1-1.44-.4 13.52 13.52 0 0 0-7.25-2.34 6.12 6.12 0 0 0-3.74 1 3.15 3.15 0 0 0-1.39 2.62v.09a3.16 3.16 0 0 0 1.51 2.8 21.31 21.31 0 0 0 6 2.05q5.22 1.23 7.65 3.29a7.12 7.12 0 0 1 2.43 5.75v.09a8.16 8.16 0 0 1-3.11 6.75 12.7 12.7 0 0 1-8.12 2.51zM357 132v-26a2.54 2.54 0 0 1 .81-1.92 2.76 2.76 0 0 1 2-.77 2.71 2.71 0 0 1 1.93.77 2.54 2.54 0 0 1 .81 1.92v26a2.54 2.54 0 0 1-.81 1.92 2.71 2.71 0 0 1-1.93.77 2.76 2.76 0 0 1-2-.77A2.54 2.54 0 0 1 357 132zm37.92 3a16 16 0 0 1-11.81-4.52 15.39 15.39 0 0 1-4.52-11.36V119a15.49 15.49 0 0 1 4.61-11.29 15.66 15.66 0 0 1 11.63-4.71 18.23 18.23 0 0 1 10.75 3.13 2.63 2.63 0 0 1 1.13 2.21 2.56 2.56 0 0 1-.81 1.9 2.67 2.67 0 0 1-1.93.79 3 3 0 0 1-1.71-.62 12.79 12.79 0 0 0-7.65-2.43 9.5 9.5 0 0 0-7.27 3.2 11 11 0 0 0-2.95 7.7v.12a11 11 0 0 0 3 7.92 10.22 10.22 0 0 0 7.71 3.08 12.53 12.53 0 0 0 7.61-2.34v-5.78h-6.21a2.45 2.45 0 0 1-1.76-.68 2.2 2.2 0 0 1-.72-1.65 2.27 2.27 0 0 1 .72-1.68 2.41 2.41 0 0 1 1.76-.71h8.77a2.72 2.72 0 0 1 2 .79 2.61 2.61 0 0 1 .81 1.94v8.25a3.81 3.81 0 0 1-1.93 3.44 20.08 20.08 0 0 1-11.23 3.42zm29.34-3v-25.88a2.61 2.61 0 0 1 .81-1.94 2.72 2.72 0 0 1 2-.79h.58a3.73 3.73 0 0 1 2.88 1.59l15.75 20V106a2.53 2.53 0 0 1 .79-1.87 2.63 2.63 0 0 1 1.91-.77 2.71 2.71 0 0 1 1.94.77 2.49 2.49 0 0 1 .81 1.87v25.93a2.58 2.58 0 0 1-.79 1.92 2.63 2.63 0 0 1-1.91.77h-.22a3.7 3.7 0 0 1-2.91-1.62l-16.2-20.55V132a2.53 2.53 0 0 1-.79 1.88 2.63 2.63 0 0 1-1.91.77 2.71 2.71 0 0 1-1.93-.77 2.49 2.49 0 0 1-.81-1.88zM250.2 185a15.51 15.51 0 0 1-11.43-4.59 15.33 15.33 0 0 1-4.59-11.29V169a15.48 15.48 0 0 1 4.59-11.33 15.72 15.72 0 0 1 11.66-4.67 17.48 17.48 0 0 1 10.8 3.48 2.67 2.67 0 0 1 .29 4 2.69 2.69 0 0 1-2 .77 2.74 2.74 0 0 1-1.67-.53 11.89 11.89 0 0 0-7.51-2.78 9.78 9.78 0 0 0-7.43 3.15 10.87 10.87 0 0 0-3 7.74v.17a10.94 10.94 0 0 0 3 7.76 9.75 9.75 0 0 0 7.43 3.18 12 12 0 0 0 7.88-3 2.48 2.48 0 0 1 1.66-.62 2.56 2.56 0 0 1 1.82.75 2.36 2.36 0 0 1 .79 1.76 2.49 2.49 0 0 1-.9 1.94A17 17 0 0 1 250.2 185zm54.45-4.71a17.32 17.32 0 0 1-23.62 0 15.3 15.3 0 0 1-4.63-11.25V169a15.37 15.37 0 0 1 4.68-11.29 17.32 17.32 0 0 1 23.63 0 15.3 15.3 0 0 1 4.63 11.25v.04a15.37 15.37 0 0 1-4.69 11.29zm-19.42-3.53a10.86 10.86 0 0 0 15.3 0 10.75 10.75 0 0 0 3-7.72V169a10.89 10.89 0 0 0-3-7.78 10.8 10.8 0 0 0-15.3 0 10.82 10.82 0 0 0-3 7.74v.04a10.81 10.81 0 0 0 3 7.76zM325 181.7V156a2.54 2.54 0 0 1 .81-1.92 2.76 2.76 0 0 1 2-.77 2.69 2.69 0 0 1 2 .77 2.58 2.58 0 0 1 .79 1.92v23.5h14.26a2.45 2.45 0 0 1 1.78.73 2.42 2.42 0 0 1 0 3.48 2.45 2.45 0 0 1-1.78.73h-17a2.72 2.72 0 0 1-2-.79 2.61 2.61 0 0 1-.86-1.95zm36.89 0V156a2.54 2.54 0 0 1 .81-1.92 2.76 2.76 0 0 1 2-.77 2.69 2.69 0 0 1 2 .77 2.58 2.58 0 0 1 .79 1.92v23.5h14.26a2.45 2.45 0 0 1 1.78.73 2.42 2.42 0 0 1 0 3.48 2.45 2.45 0 0 1-1.78.73h-17a2.72 2.72 0 0 1-2-.79 2.61 2.61 0 0 1-.86-1.95zm39.64 2.74a2.72 2.72 0 0 1-2-.79 2.61 2.61 0 0 1-.81-1.94V156.3a2.61 2.61 0 0 1 .81-1.94 2.72 2.72 0 0 1 2-.79h18.32a2.41 2.41 0 0 1 1.75.71 2.41 2.41 0 0 1 0 3.44 2.41 2.41 0 0 1-1.75.71h-15.57v8h13.54a2.47 2.47 0 0 1 2.48 2.47 2.27 2.27 0 0 1-.72 1.68 2.41 2.41 0 0 1-1.75.71h-13.55v8.29h15.79a2.44 2.44 0 0 1 1.73.71 2.28 2.28 0 0 1 .74 1.72 2.32 2.32 0 0 1-.72 1.72 2.41 2.41 0 0 1-1.75.71h-18.54zm50.99.56a15.51 15.51 0 0 1-11.43-4.59 15.33 15.33 0 0 1-4.59-11.29V169a15.48 15.48 0 0 1 4.59-11.33 15.72 15.72 0 0 1 11.65-4.67 17.48 17.48 0 0 1 10.8 3.48 2.67 2.67 0 0 1 .29 4 2.69 2.69 0 0 1-2 .77 2.74 2.74 0 0 1-1.67-.53 11.89 11.89 0 0 0-7.46-2.72 9.78 9.78 0 0 0-7.43 3.15 10.87 10.87 0 0 0-3 7.74v.11a10.94 10.94 0 0 0 3 7.76 9.75 9.75 0 0 0 7.43 3.18 12 12 0 0 0 7.88-3 2.48 2.48 0 0 1 1.66-.62 2.56 2.56 0 0 1 1.82.75 2.36 2.36 0 0 1 .79 1.76 2.49 2.49 0 0 1-.9 1.94 17 17 0 0 1-11.43 4.23zm35.32-3v-23.41h-7.65a2.46 2.46 0 0 1-1.82-.75 2.47 2.47 0 0 1 0-3.53 2.47 2.47 0 0 1 1.82-.75h20.93a2.51 2.51 0 0 1 0 5h-7.7V182a2.56 2.56 0 0 1-.81 1.9 2.87 2.87 0 0 1-4 0 2.56 2.56 0 0 1-.77-1.9zm30.74 0v-26a2.54 2.54 0 0 1 .81-1.92 2.76 2.76 0 0 1 2-.77 2.71 2.71 0 0 1 1.93.77 2.54 2.54 0 0 1 .81 1.92v26a2.54 2.54 0 0 1-.81 1.92 2.71 2.71 0 0 1-1.93.77 2.76 2.76 0 0 1-2-.77 2.54 2.54 0 0 1-.81-1.92zm35.23 2.88a3.24 3.24 0 0 1-3.15-2.21l-11-25.4a3.18 3.18 0 0 1-.32-1.28 2.49 2.49 0 0 1 .81-1.87 2.76 2.76 0 0 1 2-.77 2.82 2.82 0 0 1 2.83 1.94l9.02 22.27 9.23-22.45a2.6 2.6 0 0 1 1-1.26 2.82 2.82 0 0 1 1.67-.51 2.73 2.73 0 0 1 2 .75 2.46 2.46 0 0 1 .79 1.85 2.88 2.88 0 0 1-.27 1.15l-11.07 25.58a3.27 3.27 0 0 1-3.19 2.21h-.32zm32.49-.44a2.72 2.72 0 0 1-2-.79 2.61 2.61 0 0 1-.81-1.94V156.3a2.61 2.61 0 0 1 .81-1.94 2.72 2.72 0 0 1 2-.79h18.32a2.41 2.41 0 0 1 1.75.71 2.41 2.41 0 0 1 0 3.44 2.41 2.41 0 0 1-1.75.71H589v8h13.54a2.47 2.47 0 0 1 2.48 2.47 2.27 2.27 0 0 1-.72 1.68 2.41 2.41 0 0 1-1.75.71H589v8.29h15.79a2.44 2.44 0 0 1 1.73.71 2.28 2.28 0 0 1 .74 1.72 2.32 2.32 0 0 1-.72 1.72 2.41 2.41 0 0 1-1.75.71H586.3z"/></svg>